<svg width="30" height="15" viewBox="0 0 30 15" fill="#FFFFFF" xmlns="http://www.w3.org/2000/svg">
<path d="M0 1.5C0 0.671573 0.778635 0 1.73913 0H18.2609C19.2214 0 20 0.671573 20 1.5C20 2.32843 19.2214 3 18.2609 3H1.73913C0.778635 3 0 2.32843 0 1.5Z" fill="#333"/>
<path d="M0 7.5C0 6.67157 0.778635 6 1.73913 6H18.2609C19.2214 6 20 6.67157 20 7.5C20 8.32843 19.2214 9 18.2609 9H1.73913C0.778635 9 0 8.32843 0 7.5Z" fill="#333"/>
<path d="M1.73913 12C0.778635 12 0 12.6716 0 13.5C0 14.3284 0.778635 15 1.73913 15H18.2609C19.2214 15 20 14.3284 20 13.5C20 12.6716 19.2214 12 18.2609 12H1.73913Z" fill="#333"/>
</svg>
