<svg xmlns="http://www.w3.org/2000/svg" width="24" height="24" viewBox="0 0 24 24" fill="none">
  <path d="M16.2804 7.1C17.9354 7.1 18.9699 8.89169 18.1423 10.325C17.5439 11.3615 17.5439 12.6385 18.1423 13.675C18.9699 15.1083 17.9355 16.9 16.2804 16.9C15.0836 16.9 13.9776 17.5385 13.3792 18.575C12.5517 20.0083 10.4828 20.0083 9.65531 18.575C9.05689 17.5385 7.95096 16.9 6.75412 16.9C5.09904 16.9 4.06461 15.1083 4.89215 13.675C5.49057 12.6385 5.49057 11.3615 4.89215 10.325C4.06463 8.89165 5.09904 7.1 6.75409 7.1C7.95092 7.1 9.05684 6.46149 9.65526 5.42501C10.4828 3.99167 12.5516 3.99167 13.3792 5.425C13.9776 6.46149 15.0835 7.1 16.2804 7.1Z" stroke="currentColor" stroke-width="1.2"/>
  <path d="M10.0008 11.9504C9.99431 12.1473 10.0266 12.3435 10.096 12.5279C10.1653 12.7123 10.2702 12.8812 10.4048 13.025C10.5395 13.1688 10.7011 13.2847 10.8805 13.3661C11.0599 13.4474 11.2535 13.4927 11.4504 13.4992C11.6473 13.5057 11.8435 13.4734 12.0279 13.404C12.2123 13.3347 12.3812 13.2298 12.525 13.0952C12.6688 12.9605 12.7847 12.7989 12.8661 12.6195C12.9474 12.4401 12.9927 12.2465 12.9992 12.0496C13.0057 11.8527 12.9734 11.6565 12.904 11.4721C12.8347 11.2877 12.7298 11.1188 12.5952 10.975C12.4605 10.8312 12.2989 10.7153 12.1195 10.6339C11.9401 10.5526 11.7465 10.5073 11.5496 10.5008C11.3527 10.4943 11.1565 10.5266 10.9721 10.596C10.7877 10.6653 10.6188 10.7702 10.475 10.9048C10.3312 11.0395 10.2153 11.2011 10.1339 11.3805C10.0526 11.5599 10.0073 11.7535 10.0008 11.9504Z" stroke="currentColor" stroke-linecap="round" stroke-linejoin="round"/>
</svg>