<svg width="24" height="24" viewBox="0 0 24 24" fill="none" xmlns="http://www.w3.org/2000/svg">
<path d="M10 15L11 15C11 14.4477 10.5523 14 10 14L10 15ZM10 19L9 19L10 19ZM13 22L13 23C13.3952 23 13.7533 22.7673 13.9138 22.4061L13 22ZM17 13L17.9138 13.4061C17.9706 13.2783 18 13.1399 18 13L17 13ZM17 2L18 2C18 1.73478 17.8946 1.48043 17.7071 1.29289C17.5196 1.10536 17.2652 1 17 1L17 2ZM5.72 2L5.70869 3L5.72 3L5.72 2ZM3.72 3.7L4.70845 3.85156L4.70869 3.84994L3.72 3.7ZM2.34 12.7L1.35155 12.5484L1.35132 12.5499L2.34 12.7ZM4.34 15L4.34 13.9999L4.32868 14.0001L4.34 15ZM17 2L17 1C16.7348 1 16.4804 1.10536 16.2929 1.29289C16.1054 1.48043 16 1.73478 16 2L17 2ZM20 2L20 3L20 2ZM17 13L16 13C16 13.5523 16.4477 14 17 14L17 13ZM9 15L9 19L11 19L11 15L9 15ZM9 19C9 21.2091 10.7909 23 13 23L13 21C11.8954 21 11 20.1046 11 19L9 19ZM13.9138 22.4061L17.9138 13.4061L16.0862 12.5939L12.0862 21.5939L13.9138 22.4061ZM18 13L18 2L16 2L16 13L18 13ZM17 1L5.72 1L5.72 3L17 3L17 1ZM5.7313 1.00007C4.23537 0.983154 2.95561 2.07095 2.7313 3.55007L4.70869 3.84994C4.78346 3.3569 5.21005 2.9943 5.70869 2.99994L5.7313 1.00007ZM2.73155 3.54844L1.35155 12.5484L3.32845 12.8516L4.70845 3.85156L2.73155 3.54844ZM1.35132 12.5499C1.21924 13.4202 1.47598 14.3045 2.05354 14.9687L3.56275 13.6563C3.37023 13.4349 3.28465 13.1401 3.32868 12.8501L1.35132 12.5499ZM2.05354 14.9687C2.63109 15.6329 3.4712 16.0099 4.35132 15.9999L4.32868 14.0001C4.0353 14.0034 3.75527 13.8777 3.56275 13.6563L2.05354 14.9687ZM4.34 16L10 16L10 14L4.34 14L4.34 16ZM17 3L20 3L20 1L17 1L17 3ZM20 3C20.5523 3 21 3.44772 21 4L23 4C23 2.34315 21.6569 1 20 1L20 3ZM21 4L21 11L23 11L23 4L21 4ZM21 11C21 11.5523 20.5523 12 20 12L20 14C21.6569 14 23 12.6569 23 11L21 11ZM20 12L17 12L17 14L20 14L20 12ZM18 13L18 2L16 2L16 13L18 13Z" fill="#FF0F00"/>
</svg>
